<?xml version="1.0" encoding="utf-8"?>
<!-- Generator: Adobe Illustrator 25.1.0, SVG Export Plug-In . SVG Version: 6.00 Build 0)  -->
<svg version="1.1" id="Layer_1" xmlns="http://www.w3.org/2000/svg" xmlns:xlink="http://www.w3.org/1999/xlink" x="0px" y="0px"
	 viewBox="0 0 500 162.94" style="enable-background:new 0 0 500 162.94;" xml:space="preserve">
<style type="text/css">
	.st0{opacity:0.9;}
	.st1{clip-path:url(#SVGID_2_);fill:#7D7873;}
	.st2{fill:#CAC8C6;}
	.st3{fill-rule:evenodd;clip-rule:evenodd;fill:#A29F9C;}
	.st4{fill-rule:evenodd;clip-rule:evenodd;fill:#8A8481;}
	.st5{fill-rule:evenodd;clip-rule:evenodd;fill:#E4E3E2;}
	.st6{fill:#F6CB02;}
</style>
<g class="st0">
	<g>
		<defs>
			<rect id="SVGID_1_" x="79.33" y="81.47" width="79.48" height="81.47"/>
		</defs>
		<clipPath id="SVGID_2_">
			<use xlink:href="#SVGID_1_"  style="overflow:visible;"/>
		</clipPath>
		<rect x="79.33" y="81.47" class="st1" width="79.48" height="81.47"/>
	</g>
</g>
<rect x="-0.16" y="0" class="st2" width="79.48" height="81.47"/>
<polygon class="st3" points="79.33,81.47 79.33,162.94 -0.16,81.47 "/>
<polygon class="st4" points="158.81,79.43 79.33,160.9 79.33,79.43 "/>
<polygon class="st3" points="79.33,81.47 79.33,0 158.8,81.47 "/>
<polygon class="st5" points="79.33,0 79.33,81.47 -0.16,0 "/>
<g>
	<polygon class="st6" points="198.33,27.44 207.47,27.44 228.58,55.18 228.58,27.44 238.35,27.44 238.35,72.49 229.93,72.49 
		208.11,43.85 208.11,72.49 198.33,72.49 	"/>
	<path class="st6" d="M307.3,27.28h9.14l19.3,45.37h-10.36l-4.11-10.11h-19.05l-4.12,10.11H288L307.3,27.28z M317.73,53.8
		l-5.98-14.61l-5.99,14.61H317.73z"/>
	<polygon class="st6" points="374.94,27.6 385.88,27.6 397.65,59.33 409.43,27.6 420.11,27.6 401.9,72.97 393.15,72.97 	"/>
	<polygon class="st6" points="465.7,27.6 499.68,27.6 499.68,36.42 475.55,36.42 475.55,45.56 496.78,45.56 496.78,54.37 
		475.55,54.37 475.55,63.83 500,63.83 500,72.65 465.7,72.65 	"/>
</g>
<g>
	<path class="st6" d="M206.45,107.15c-0.3,0.23-0.62,0.43-0.97,0.59c-0.35,0.16-0.72,0.29-1.12,0.38c-0.4,0.09-0.84,0.13-1.33,0.13
		c-0.77,0-1.49-0.14-2.14-0.43c-0.65-0.29-1.22-0.68-1.7-1.17c-0.48-0.49-0.85-1.08-1.13-1.75c-0.27-0.67-0.4-1.4-0.4-2.17
		c0-0.76,0.13-1.48,0.4-2.16c0.27-0.67,0.65-1.26,1.13-1.76c0.48-0.5,1.05-0.9,1.71-1.19c0.66-0.29,1.39-0.44,2.17-0.44
		c0.49,0,0.93,0.04,1.32,0.12c0.39,0.08,0.76,0.2,1.09,0.35c0.34,0.14,0.65,0.33,0.93,0.53c0.29,0.21,0.56,0.44,0.82,0.7l-0.82,0.89
		c-0.46-0.43-0.95-0.78-1.47-1.06c-0.53-0.27-1.16-0.41-1.89-0.41c-0.59,0-1.14,0.12-1.64,0.34c-0.5,0.23-0.94,0.54-1.31,0.94
		c-0.37,0.4-0.67,0.86-0.87,1.4c-0.21,0.53-0.32,1.11-0.32,1.74c0,0.62,0.11,1.2,0.32,1.74c0.21,0.54,0.5,1.01,0.87,1.41
		c0.37,0.39,0.81,0.71,1.31,0.94s1.05,0.34,1.64,0.34c0.73,0,1.37-0.13,1.89-0.4c0.53-0.27,1.05-0.65,1.56-1.14l0.8,0.78
		C207.04,106.67,206.75,106.92,206.45,107.15z"/>
	<path class="st6" d="M217.16,98.47h-6.53v3.65h5.84v1.1h-5.84v3.75h6.6v1.1h-7.81v-10.7h7.74V98.47z"/>
	<path class="st6" d="M227.55,97.38h1.18v10.7h-0.96l-6.92-8.78v8.78h-1.17v-10.7h1.13l6.74,8.58V97.38z"/>
	<path class="st6" d="M235.79,108.08h-1.21v-9.59h-3.6v-1.11h8.4v1.11h-3.59V108.08z"/>
	<path class="st6" d="M249.04,108.08l-3.1-4.16h-3.06v4.16h-1.21v-10.7h4.6c0.59,0,1.12,0.08,1.6,0.23
		c0.47,0.15,0.88,0.37,1.21,0.65c0.34,0.28,0.6,0.62,0.78,1.01c0.18,0.39,0.28,0.83,0.28,1.3c0,0.45-0.07,0.85-0.22,1.2
		c-0.14,0.35-0.35,0.66-0.6,0.92c-0.26,0.26-0.57,0.48-0.93,0.65s-0.74,0.3-1.16,0.37l3.28,4.37H249.04z M248.21,99.05
		c-0.48-0.37-1.16-0.56-2.02-0.56h-3.31v4.36h3.29c0.4,0,0.77-0.05,1.1-0.15c0.34-0.1,0.63-0.24,0.88-0.44
		c0.24-0.19,0.44-0.42,0.57-0.7c0.14-0.27,0.21-0.59,0.21-0.94C248.93,99.95,248.69,99.42,248.21,99.05z"/>
	<path class="st6" d="M262.77,104.83c-0.26,0.67-0.64,1.26-1.12,1.77c-0.48,0.51-1.06,0.92-1.73,1.21c-0.67,0.3-1.42,0.45-2.23,0.45
		s-1.56-0.15-2.23-0.44c-0.67-0.3-1.24-0.7-1.72-1.2c-0.48-0.5-0.85-1.09-1.11-1.76c-0.26-0.67-0.39-1.38-0.39-2.12
		s0.13-1.45,0.4-2.12c0.26-0.67,0.64-1.26,1.12-1.76c0.48-0.51,1.06-0.92,1.73-1.22c0.67-0.3,1.41-0.45,2.23-0.45
		c0.82,0,1.55,0.15,2.23,0.45c0.67,0.29,1.24,0.7,1.72,1.2c0.48,0.5,0.85,1.09,1.11,1.76c0.26,0.67,0.39,1.37,0.39,2.12
		C263.17,103.46,263.03,104.16,262.77,104.83z M261.6,101.02c-0.21-0.54-0.5-1.01-0.88-1.41c-0.38-0.4-0.82-0.71-1.34-0.95
		c-0.52-0.23-1.08-0.35-1.69-0.35c-0.61,0-1.17,0.12-1.69,0.35c-0.52,0.23-0.96,0.54-1.32,0.94c-0.37,0.4-0.66,0.86-0.86,1.4
		c-0.21,0.53-0.32,1.11-0.32,1.72c0,0.61,0.11,1.18,0.32,1.73c0.21,0.54,0.5,1.01,0.88,1.41c0.38,0.4,0.82,0.71,1.34,0.95
		c0.52,0.23,1.08,0.35,1.69,0.35c0.61,0,1.17-0.11,1.69-0.34s0.95-0.55,1.32-0.94c0.36-0.4,0.65-0.87,0.86-1.4
		c0.21-0.54,0.31-1.11,0.31-1.72S261.81,101.55,261.6,101.02z"/>
	<path class="st6" d="M279.31,104.83c-0.27,0.66-0.67,1.23-1.17,1.71s-1.11,0.85-1.8,1.13c-0.7,0.27-1.47,0.41-2.3,0.41h-3.72v-10.7
		h3.72c0.83,0,1.6,0.13,2.3,0.4c0.7,0.27,1.3,0.65,1.8,1.13c0.5,0.47,0.9,1.04,1.17,1.69c0.27,0.66,0.41,1.36,0.41,2.11
		C279.72,103.47,279.58,104.17,279.31,104.83z M278.15,101.07c-0.21-0.52-0.5-0.97-0.89-1.35c-0.38-0.38-0.85-0.68-1.4-0.9
		c-0.55-0.22-1.16-0.33-1.83-0.33h-2.51v8.47h2.51c0.67,0,1.29-0.11,1.83-0.32c0.55-0.21,1.02-0.51,1.4-0.89
		c0.38-0.38,0.68-0.83,0.89-1.34c0.21-0.51,0.32-1.07,0.32-1.67C278.47,102.15,278.36,101.6,278.15,101.07z"/>
	<path class="st6" d="M290,98.47h-6.53v3.65h5.84v1.1h-5.84v3.75h6.6v1.1h-7.81v-10.7H290V98.47z"/>
	<path class="st6" d="M304.48,108.08l-3.1-4.16h-3.06v4.16h-1.21v-10.7h4.6c0.59,0,1.12,0.08,1.6,0.23
		c0.47,0.15,0.88,0.37,1.21,0.65c0.34,0.28,0.6,0.62,0.78,1.01c0.18,0.39,0.28,0.83,0.28,1.3c0,0.45-0.07,0.85-0.22,1.2
		c-0.14,0.35-0.35,0.66-0.6,0.92c-0.26,0.26-0.57,0.48-0.93,0.65c-0.35,0.17-0.74,0.3-1.16,0.37l3.28,4.37H304.48z M303.65,99.05
		c-0.48-0.37-1.16-0.56-2.02-0.56h-3.31v4.36h3.29c0.4,0,0.77-0.05,1.1-0.15c0.34-0.1,0.63-0.24,0.88-0.44
		c0.24-0.19,0.44-0.42,0.57-0.7c0.14-0.27,0.21-0.59,0.21-0.94C304.37,99.95,304.13,99.42,303.65,99.05z"/>
	<path class="st6" d="M315.9,98.47h-6.53v3.65h5.84v1.1h-5.84v3.75h6.6v1.1h-7.81v-10.7h7.74V98.47z"/>
	<path class="st6" d="M319.46,100.73c0.08,0.2,0.23,0.39,0.44,0.56c0.22,0.17,0.51,0.32,0.89,0.46c0.38,0.14,0.86,0.27,1.45,0.39
		c1.19,0.26,2.07,0.63,2.64,1.1s0.85,1.12,0.85,1.94c0,0.46-0.09,0.88-0.27,1.26c-0.18,0.38-0.43,0.7-0.75,0.96
		c-0.32,0.27-0.7,0.47-1.15,0.61c-0.45,0.14-0.94,0.22-1.47,0.22c-0.85,0-1.64-0.14-2.35-0.42c-0.71-0.27-1.39-0.7-2.03-1.28
		l0.75-0.89c0.56,0.51,1.13,0.89,1.7,1.14c0.58,0.25,1.23,0.37,1.98,0.37c0.72,0,1.3-0.17,1.74-0.51c0.43-0.34,0.65-0.78,0.65-1.33
		c0-0.25-0.04-0.48-0.12-0.68c-0.08-0.2-0.23-0.38-0.43-0.54c-0.2-0.16-0.48-0.31-0.85-0.45c-0.36-0.13-0.82-0.26-1.39-0.38
		c-0.61-0.13-1.15-0.28-1.6-0.46c-0.46-0.18-0.83-0.38-1.13-0.63c-0.3-0.24-0.52-0.53-0.66-0.86c-0.14-0.33-0.22-0.71-0.22-1.17
		c0-0.43,0.09-0.82,0.26-1.18c0.17-0.36,0.42-0.67,0.73-0.93c0.31-0.26,0.69-0.47,1.11-0.61c0.43-0.15,0.9-0.22,1.41-0.22
		c0.79,0,1.47,0.11,2.06,0.32c0.59,0.22,1.16,0.54,1.7,0.98l-0.7,0.93c-0.5-0.41-1-0.7-1.51-0.89c-0.51-0.18-1.04-0.27-1.59-0.27
		c-0.35,0-0.66,0.05-0.94,0.14c-0.28,0.09-0.52,0.21-0.72,0.36c-0.2,0.15-0.35,0.34-0.46,0.55c-0.11,0.22-0.16,0.45-0.16,0.69
		C319.34,100.29,319.38,100.52,319.46,100.73z"/>
	<path class="st6" d="M329.51,97.38v10.7h-1.21v-10.7H329.51z"/>
	<path class="st6" d="M341.64,104.83c-0.27,0.66-0.67,1.23-1.17,1.71s-1.11,0.85-1.8,1.13c-0.7,0.27-1.47,0.41-2.3,0.41h-3.72v-10.7
		h3.72c0.83,0,1.6,0.13,2.3,0.4c0.7,0.27,1.3,0.65,1.8,1.13c0.5,0.47,0.9,1.04,1.17,1.69c0.27,0.66,0.41,1.36,0.41,2.11
		C342.05,103.47,341.91,104.17,341.64,104.83z M340.48,101.07c-0.21-0.52-0.5-0.97-0.89-1.35c-0.38-0.38-0.85-0.68-1.4-0.9
		c-0.55-0.22-1.16-0.33-1.83-0.33h-2.51v8.47h2.51c0.67,0,1.29-0.11,1.83-0.32c0.55-0.21,1.02-0.51,1.4-0.89
		c0.38-0.38,0.68-0.83,0.89-1.34c0.21-0.51,0.32-1.07,0.32-1.67C340.8,102.15,340.69,101.6,340.48,101.07z"/>
	<path class="st6" d="M352.34,98.47h-6.53v3.65h5.84v1.1h-5.84v3.75h6.6v1.1h-7.81v-10.7h7.74V98.47z"/>
	<path class="st6" d="M362.73,97.38h1.18v10.7h-0.96l-6.92-8.78v8.78h-1.17v-10.7h1.13l6.74,8.58V97.38z"/>
	<path class="st6" d="M375.25,107.15c-0.3,0.23-0.62,0.43-0.97,0.59c-0.35,0.16-0.72,0.29-1.12,0.38c-0.4,0.09-0.84,0.13-1.33,0.13
		c-0.77,0-1.49-0.14-2.14-0.43c-0.65-0.29-1.22-0.68-1.7-1.17c-0.48-0.49-0.85-1.08-1.13-1.75c-0.27-0.67-0.4-1.4-0.4-2.17
		c0-0.76,0.13-1.48,0.4-2.16c0.27-0.67,0.65-1.26,1.13-1.76c0.48-0.5,1.05-0.9,1.71-1.19c0.66-0.29,1.39-0.44,2.17-0.44
		c0.49,0,0.93,0.04,1.32,0.12c0.39,0.08,0.76,0.2,1.09,0.35c0.34,0.14,0.65,0.33,0.93,0.53c0.29,0.21,0.56,0.44,0.82,0.7l-0.82,0.89
		c-0.46-0.43-0.95-0.78-1.47-1.06c-0.53-0.27-1.16-0.41-1.89-0.41c-0.59,0-1.14,0.12-1.64,0.34c-0.5,0.23-0.94,0.54-1.31,0.94
		c-0.37,0.4-0.67,0.86-0.87,1.4c-0.21,0.53-0.32,1.11-0.32,1.74c0,0.62,0.11,1.2,0.32,1.74c0.21,0.54,0.5,1.01,0.87,1.41
		c0.37,0.39,0.81,0.71,1.31,0.94c0.5,0.23,1.05,0.34,1.64,0.34c0.73,0,1.37-0.13,1.89-0.4c0.53-0.27,1.05-0.65,1.56-1.14l0.8,0.78
		C375.84,106.67,375.55,106.92,375.25,107.15z"/>
	<path class="st6" d="M379.54,97.38v10.7h-1.21v-10.7H379.54z"/>
	<path class="st6" d="M392.64,108.08h-1.3l-1.26-2.83h-5.83l-1.27,2.83h-1.24l4.88-10.78h1.13L392.64,108.08z M387.19,98.72
		l-2.45,5.46h4.88L387.19,98.72z"/>
	<path class="st6" d="M403.9,108.08h-1.21v-4.23l-4.45-6.47h1.47l3.6,5.35l3.64-5.35h1.41l-4.45,6.45V108.08z"/>
	<path class="st6" d="M423.19,107.15c-0.3,0.23-0.62,0.43-0.97,0.59c-0.35,0.16-0.72,0.29-1.12,0.38c-0.4,0.09-0.84,0.13-1.33,0.13
		c-0.77,0-1.49-0.14-2.14-0.43c-0.65-0.29-1.22-0.68-1.7-1.17c-0.48-0.49-0.85-1.08-1.13-1.75c-0.27-0.67-0.4-1.4-0.4-2.17
		c0-0.76,0.13-1.48,0.4-2.16c0.27-0.67,0.65-1.26,1.13-1.76c0.48-0.5,1.05-0.9,1.71-1.19c0.66-0.29,1.39-0.44,2.17-0.44
		c0.49,0,0.93,0.04,1.32,0.12c0.39,0.08,0.76,0.2,1.09,0.35c0.34,0.14,0.65,0.33,0.93,0.53c0.29,0.21,0.56,0.44,0.82,0.7l-0.82,0.89
		c-0.46-0.43-0.95-0.78-1.47-1.06c-0.53-0.27-1.16-0.41-1.89-0.41c-0.59,0-1.14,0.12-1.64,0.34c-0.5,0.23-0.94,0.54-1.31,0.94
		c-0.37,0.4-0.67,0.86-0.87,1.4c-0.21,0.53-0.32,1.11-0.32,1.74c0,0.62,0.11,1.2,0.32,1.74c0.21,0.54,0.5,1.01,0.87,1.41
		c0.37,0.39,0.81,0.71,1.31,0.94s1.05,0.34,1.64,0.34c0.73,0,1.37-0.13,1.89-0.4c0.53-0.27,1.05-0.65,1.56-1.14l0.8,0.78
		C423.78,106.67,423.49,106.92,423.19,107.15z"/>
	<path class="st6" d="M433.54,108.08l-3.1-4.16h-3.06v4.16h-1.21v-10.7h4.6c0.59,0,1.12,0.08,1.6,0.23
		c0.47,0.15,0.88,0.37,1.21,0.65c0.34,0.28,0.6,0.62,0.78,1.01c0.18,0.39,0.28,0.83,0.28,1.3c0,0.45-0.07,0.85-0.22,1.2
		c-0.14,0.35-0.35,0.66-0.6,0.92c-0.26,0.26-0.57,0.48-0.93,0.65c-0.35,0.17-0.74,0.3-1.16,0.37l3.28,4.37H433.54z M432.71,99.05
		c-0.48-0.37-1.16-0.56-2.02-0.56h-3.31v4.36h3.29c0.4,0,0.77-0.05,1.1-0.15c0.34-0.1,0.63-0.24,0.88-0.44
		c0.24-0.19,0.44-0.42,0.57-0.7c0.14-0.27,0.21-0.59,0.21-0.94C433.44,99.95,433.19,99.42,432.71,99.05z"/>
	<path class="st6" d="M444.96,98.47h-6.53v3.65h5.84v1.1h-5.84v3.75h6.6v1.1h-7.81v-10.7h7.74V98.47z"/>
	<path class="st6" d="M457.44,108.08h-1.3l-1.26-2.83h-5.83l-1.27,2.83h-1.24l4.88-10.78h1.13L457.44,108.08z M451.98,98.72
		l-2.45,5.46h4.88L451.98,98.72z"/>
	<path class="st6" d="M467.24,107.15c-0.3,0.23-0.62,0.43-0.97,0.59c-0.35,0.16-0.72,0.29-1.12,0.38c-0.4,0.09-0.84,0.13-1.33,0.13
		c-0.77,0-1.49-0.14-2.14-0.43c-0.65-0.29-1.22-0.68-1.7-1.17c-0.48-0.49-0.85-1.08-1.13-1.75c-0.27-0.67-0.4-1.4-0.4-2.17
		c0-0.76,0.13-1.48,0.4-2.16c0.27-0.67,0.65-1.26,1.13-1.76c0.48-0.5,1.05-0.9,1.71-1.19c0.66-0.29,1.39-0.44,2.17-0.44
		c0.49,0,0.93,0.04,1.32,0.12c0.39,0.08,0.76,0.2,1.09,0.35c0.34,0.14,0.65,0.33,0.93,0.53c0.29,0.21,0.56,0.44,0.82,0.7l-0.82,0.89
		c-0.46-0.43-0.95-0.78-1.47-1.06c-0.53-0.27-1.16-0.41-1.89-0.41c-0.59,0-1.14,0.12-1.64,0.34c-0.5,0.23-0.94,0.54-1.31,0.94
		c-0.37,0.4-0.67,0.86-0.87,1.4c-0.21,0.53-0.32,1.11-0.32,1.74c0,0.62,0.11,1.2,0.32,1.74c0.21,0.54,0.5,1.01,0.87,1.41
		c0.37,0.39,0.81,0.71,1.31,0.94c0.5,0.23,1.05,0.34,1.64,0.34c0.73,0,1.37-0.13,1.89-0.4c0.53-0.27,1.05-0.65,1.56-1.14l0.8,0.78
		C467.83,106.67,467.54,106.92,467.24,107.15z"/>
	<path class="st6" d="M471.53,97.38v10.7h-1.21v-10.7H471.53z"/>
	<path class="st6" d="M484.71,104.83c-0.26,0.67-0.64,1.26-1.12,1.77c-0.48,0.51-1.06,0.92-1.73,1.21c-0.67,0.3-1.42,0.45-2.23,0.45
		s-1.56-0.15-2.23-0.44c-0.67-0.3-1.24-0.7-1.72-1.2c-0.48-0.5-0.85-1.09-1.11-1.76c-0.26-0.67-0.39-1.38-0.39-2.12
		s0.13-1.45,0.4-2.12c0.26-0.67,0.64-1.26,1.12-1.76c0.48-0.51,1.06-0.92,1.73-1.22c0.67-0.3,1.41-0.45,2.23-0.45
		c0.82,0,1.55,0.15,2.23,0.45c0.67,0.29,1.24,0.7,1.72,1.2c0.48,0.5,0.85,1.09,1.11,1.76c0.26,0.67,0.39,1.37,0.39,2.12
		C485.11,103.46,484.98,104.16,484.71,104.83z M483.54,101.02c-0.21-0.54-0.5-1.01-0.88-1.41c-0.38-0.4-0.82-0.71-1.34-0.95
		c-0.52-0.23-1.08-0.35-1.69-0.35c-0.61,0-1.17,0.12-1.69,0.35c-0.52,0.23-0.96,0.54-1.32,0.94c-0.37,0.4-0.66,0.86-0.86,1.4
		c-0.21,0.53-0.32,1.11-0.32,1.72c0,0.61,0.11,1.18,0.32,1.73c0.21,0.54,0.5,1.01,0.88,1.41c0.38,0.4,0.82,0.71,1.34,0.95
		c0.52,0.23,1.08,0.35,1.69,0.35c0.61,0,1.17-0.11,1.69-0.34s0.95-0.55,1.32-0.94c0.36-0.4,0.65-0.87,0.86-1.4
		c0.21-0.54,0.31-1.11,0.31-1.72S483.76,101.55,483.54,101.02z M479.25,96.43l1.45-2.22l1.23,0.57l-1.73,1.65H479.25z"/>
	<path class="st6" d="M495.54,97.38h1.18v10.7h-0.96l-6.92-8.78v8.78h-1.17v-10.7h1.13l6.74,8.58V97.38z"/>
	<path class="st6" d="M205.82,126.27c-0.23,0.44-0.53,0.81-0.91,1.1c-0.38,0.3-0.83,0.52-1.34,0.67c-0.51,0.15-1.05,0.22-1.62,0.22
		h-2.6v3.78h-1.21v-10.7h4c0.6,0,1.15,0.08,1.64,0.23c0.49,0.16,0.92,0.38,1.27,0.67c0.35,0.29,0.62,0.65,0.81,1.07
		c0.19,0.42,0.28,0.9,0.28,1.43C206.15,125.32,206.04,125.83,205.82,126.27z M204.15,123.03c-0.53-0.39-1.22-0.59-2.09-0.59h-2.71
		v4.71H202c0.44,0,0.84-0.06,1.2-0.17c0.36-0.12,0.68-0.27,0.94-0.48c0.26-0.21,0.46-0.46,0.6-0.75c0.14-0.29,0.21-0.61,0.21-0.97
		C204.94,124.01,204.68,123.43,204.15,123.03z"/>
	<path class="st6" d="M217.25,132.03h-1.3l-1.26-2.83h-5.83l-1.27,2.83h-1.24l4.88-10.78h1.13L217.25,132.03z M211.8,122.67
		l-2.45,5.46h4.88L211.8,122.67z"/>
	<path class="st6" d="M226.74,132.03l-3.1-4.16h-3.06v4.16h-1.21v-10.7h4.6c0.59,0,1.12,0.08,1.6,0.23
		c0.47,0.15,0.88,0.37,1.21,0.65c0.34,0.28,0.6,0.62,0.78,1.01c0.18,0.39,0.28,0.83,0.28,1.3c0,0.45-0.07,0.85-0.22,1.2
		c-0.14,0.35-0.35,0.66-0.6,0.92c-0.26,0.26-0.57,0.48-0.93,0.65c-0.35,0.17-0.74,0.3-1.16,0.37l3.28,4.37H226.74z M225.91,123
		c-0.48-0.37-1.16-0.56-2.02-0.56h-3.31v4.36h3.29c0.4,0,0.77-0.05,1.1-0.15c0.34-0.1,0.63-0.24,0.88-0.44
		c0.24-0.19,0.44-0.42,0.57-0.7c0.14-0.27,0.21-0.59,0.21-0.94C226.64,123.9,226.39,123.38,225.91,123z"/>
	<path class="st6" d="M240.39,132.03h-1.3l-1.26-2.83h-5.83l-1.27,2.83h-1.24l4.88-10.78h1.13L240.39,132.03z M234.94,122.67
		l-2.45,5.46h4.88L234.94,122.67z"/>
	<path class="st6" d="M247.09,121.33h1.21v9.59h6.02v1.12h-7.23V121.33z"/>
	<path class="st6" d="M266.53,132.03h-1.3l-1.26-2.83h-5.83l-1.27,2.83h-1.24l4.88-10.78h1.13L266.53,132.03z M261.07,122.67
		l-2.45,5.46h4.88L261.07,122.67z"/>
	<path class="st6" d="M269.48,124.68c0.08,0.2,0.23,0.39,0.44,0.56c0.22,0.17,0.51,0.32,0.89,0.46c0.38,0.14,0.86,0.27,1.45,0.39
		c1.19,0.26,2.07,0.63,2.64,1.1c0.57,0.47,0.85,1.12,0.85,1.94c0,0.46-0.09,0.88-0.27,1.26c-0.18,0.38-0.43,0.7-0.75,0.96
		c-0.32,0.27-0.7,0.47-1.15,0.61c-0.45,0.14-0.94,0.22-1.47,0.22c-0.85,0-1.64-0.14-2.35-0.42c-0.71-0.27-1.39-0.7-2.03-1.28
		l0.75-0.89c0.56,0.51,1.13,0.89,1.7,1.14c0.58,0.25,1.23,0.37,1.98,0.37c0.72,0,1.3-0.17,1.74-0.51c0.43-0.34,0.65-0.78,0.65-1.33
		c0-0.25-0.04-0.48-0.12-0.68c-0.08-0.2-0.23-0.38-0.43-0.54c-0.2-0.16-0.48-0.31-0.85-0.45c-0.36-0.13-0.82-0.26-1.39-0.38
		c-0.61-0.13-1.15-0.28-1.6-0.46c-0.46-0.18-0.83-0.38-1.13-0.63c-0.3-0.24-0.52-0.53-0.66-0.86c-0.14-0.33-0.22-0.71-0.22-1.17
		c0-0.43,0.09-0.82,0.26-1.18c0.17-0.36,0.42-0.67,0.73-0.93c0.31-0.26,0.69-0.47,1.11-0.61c0.43-0.15,0.9-0.22,1.41-0.22
		c0.79,0,1.47,0.11,2.06,0.32c0.59,0.22,1.16,0.54,1.7,0.98l-0.7,0.93c-0.5-0.41-1-0.7-1.51-0.89c-0.51-0.18-1.04-0.27-1.59-0.27
		c-0.35,0-0.66,0.05-0.94,0.14c-0.28,0.09-0.52,0.21-0.72,0.36c-0.2,0.15-0.35,0.34-0.46,0.55c-0.11,0.22-0.16,0.45-0.16,0.69
		C269.36,124.25,269.4,124.48,269.48,124.68z"/>
	<path class="st6" d="M292.78,132.03h-1.3l-1.26-2.83h-5.83l-1.27,2.83h-1.24l4.88-10.78h1.13L292.78,132.03z M287.32,122.67
		l-2.45,5.46h4.88L287.32,122.67z"/>
	<path class="st6" d="M302.26,132.03l-3.1-4.16h-3.06v4.16h-1.21v-10.7h4.6c0.59,0,1.12,0.08,1.6,0.23
		c0.47,0.15,0.88,0.37,1.21,0.65c0.34,0.28,0.6,0.62,0.78,1.01c0.18,0.39,0.28,0.83,0.28,1.3c0,0.45-0.07,0.85-0.22,1.2
		c-0.14,0.35-0.35,0.66-0.6,0.92c-0.26,0.26-0.57,0.48-0.93,0.65c-0.35,0.17-0.74,0.3-1.16,0.37l3.29,4.37H302.26z M301.43,123
		c-0.48-0.37-1.16-0.56-2.02-0.56h-3.31v4.36h3.29c0.4,0,0.77-0.05,1.1-0.15c0.34-0.1,0.63-0.24,0.88-0.44
		c0.24-0.19,0.44-0.42,0.57-0.7c0.14-0.27,0.21-0.59,0.21-0.94C302.15,123.9,301.91,123.38,301.43,123z"/>
	<path class="st6" d="M309.88,132.03h-1.21v-9.59h-3.6v-1.11h8.4v1.11h-3.59V132.03z"/>
	<path class="st6" d="M323.48,122.43h-6.53v3.65h5.84v1.1h-5.84v3.75h6.6v1.1h-7.81v-10.7h7.74V122.43z"/>
	<path class="st6" d="M327.05,124.68c0.08,0.2,0.23,0.39,0.44,0.56c0.22,0.17,0.51,0.32,0.89,0.46c0.38,0.14,0.86,0.27,1.45,0.39
		c1.19,0.26,2.07,0.63,2.64,1.1c0.57,0.47,0.85,1.12,0.85,1.94c0,0.46-0.09,0.88-0.27,1.26c-0.18,0.38-0.43,0.7-0.75,0.96
		c-0.32,0.27-0.7,0.47-1.15,0.61c-0.45,0.14-0.94,0.22-1.47,0.22c-0.85,0-1.64-0.14-2.35-0.42c-0.71-0.27-1.39-0.7-2.03-1.28
		l0.75-0.89c0.56,0.51,1.13,0.89,1.7,1.14c0.58,0.25,1.23,0.37,1.98,0.37c0.72,0,1.3-0.17,1.74-0.51c0.43-0.34,0.65-0.78,0.65-1.33
		c0-0.25-0.04-0.48-0.12-0.68c-0.08-0.2-0.23-0.38-0.43-0.54c-0.2-0.16-0.48-0.31-0.85-0.45c-0.36-0.13-0.82-0.26-1.39-0.38
		c-0.61-0.13-1.15-0.28-1.6-0.46c-0.46-0.18-0.83-0.38-1.13-0.63c-0.3-0.24-0.52-0.53-0.66-0.86c-0.14-0.33-0.22-0.71-0.22-1.17
		c0-0.43,0.09-0.82,0.26-1.18c0.17-0.36,0.42-0.67,0.73-0.93c0.31-0.26,0.69-0.47,1.11-0.61c0.43-0.15,0.9-0.22,1.41-0.22
		c0.79,0,1.47,0.11,2.06,0.32c0.59,0.22,1.16,0.54,1.7,0.98l-0.7,0.93c-0.5-0.41-1-0.7-1.51-0.89c-0.51-0.18-1.04-0.27-1.59-0.27
		c-0.35,0-0.66,0.05-0.94,0.14c-0.28,0.09-0.52,0.21-0.72,0.36c-0.2,0.15-0.35,0.34-0.46,0.55c-0.11,0.22-0.16,0.45-0.16,0.69
		C326.93,124.25,326.97,124.48,327.05,124.68z"/>
	<path class="st6" d="M348.43,121.33h1.3l-4.6,10.78h-1.07l-4.6-10.78h1.35l3.81,9.22L348.43,121.33z"/>
	<path class="st6" d="M353.16,121.33v10.7h-1.21v-10.7H353.16z"/>
	<path class="st6" d="M364.35,121.33h1.3l-4.6,10.78h-1.07l-4.6-10.78h1.35l3.81,9.22L364.35,121.33z"/>
	<path class="st6" d="M376.2,132.03h-1.3l-1.26-2.83h-5.83l-1.27,2.83h-1.24l4.88-10.78h1.13L376.2,132.03z M370.75,122.67
		l-2.45,5.46h4.88L370.75,122.67z"/>
	<path class="st6" d="M379.16,124.68c0.08,0.2,0.23,0.39,0.44,0.56c0.22,0.17,0.51,0.32,0.89,0.46c0.38,0.14,0.86,0.27,1.45,0.39
		c1.19,0.26,2.07,0.63,2.64,1.1c0.57,0.47,0.85,1.12,0.85,1.94c0,0.46-0.09,0.88-0.27,1.26c-0.18,0.38-0.43,0.7-0.75,0.96
		c-0.32,0.27-0.7,0.47-1.15,0.61c-0.45,0.14-0.94,0.22-1.47,0.22c-0.85,0-1.64-0.14-2.35-0.42c-0.71-0.27-1.39-0.7-2.03-1.28
		l0.75-0.89c0.56,0.51,1.13,0.89,1.7,1.14c0.58,0.25,1.23,0.37,1.98,0.37c0.72,0,1.3-0.17,1.74-0.51c0.43-0.34,0.65-0.78,0.65-1.33
		c0-0.25-0.04-0.48-0.12-0.68c-0.08-0.2-0.23-0.38-0.43-0.54c-0.2-0.16-0.48-0.31-0.85-0.45c-0.36-0.13-0.82-0.26-1.39-0.38
		c-0.61-0.13-1.15-0.28-1.6-0.46c-0.46-0.18-0.83-0.38-1.13-0.63c-0.3-0.24-0.52-0.53-0.66-0.86c-0.14-0.33-0.22-0.71-0.22-1.17
		c0-0.43,0.09-0.82,0.26-1.18c0.17-0.36,0.42-0.67,0.73-0.93c0.31-0.26,0.69-0.47,1.11-0.61c0.43-0.15,0.9-0.22,1.41-0.22
		c0.79,0,1.47,0.11,2.06,0.32c0.59,0.22,1.16,0.54,1.7,0.98l-0.7,0.93c-0.5-0.41-1-0.7-1.51-0.89c-0.51-0.18-1.04-0.27-1.59-0.27
		c-0.35,0-0.66,0.05-0.94,0.14c-0.28,0.09-0.52,0.21-0.72,0.36c-0.2,0.15-0.35,0.34-0.46,0.55c-0.11,0.22-0.16,0.45-0.16,0.69
		C379.03,124.25,379.08,124.48,379.16,124.68z"/>
</g>
</svg>
